<svg xmlns="http://www.w3.org/2000/svg" width="512" height="512" style="overflow: visible;" viewBox="0 0 512 512" data-svgdocument="" id="_MFkaHRNx5TU-WYqkpEXtE" class="fl-svgdocument" x="0" y="0" overflow="hidden" data-bbox="108.62737907305691 112.5514280026806 295.4995559779916 265.0222597958921"><defs id="_PALq8Z4ZjGBTdfRri_ovx" transform="matrix(0.6469627022743225, 0, 0, 0.6469627022743225, -34.40119171142578, 109.5336685180664)" data-uid="o_f2561ekdf_5"><linearGradient x1="49.09%" y1="99.98%" x2="50.91%" y2="0.02%" id="o_f2561ekdf_3" gradientUnits="objectBoundingBox" data-uid="o_f2561ekdf_6"><stop offset="0%" stop-color="rgb(255, 255, 255)" stop-opacity="1.00" data-uid="o_f2561ekdf_7"></stop><stop offset="100%" stop-color="rgb(30, 144, 255)" stop-opacity="1" data-uid="o_f2561ekdf_8"></stop></linearGradient></defs><path id="_fp-Y99NXxmq2zxqvn0lqr" d="M250 59c-99.688 0-180.5 80.813-180.5 180.5c0 72.739 43.032 135.419 105.022 163.997  C122.503 376.27 87 321.785 87 259c0-90.022 72.978-163 163-163c90.023 0 163 72.978 163 163  c0 62.784-35.501 117.267-87.519 144.495C387.47 374.917 430.5 312.238 430.5 239.5C430.5 139.813 349.688 59 250 59z" fill="url(#o_f2561ekdf_3)" transform="matrix(0.5761849284172058, 0, 0, 0.5761849284172058, 106.4049301147461, 78.5565185546875)" data-uid="o_f2561ekdf_9"></path><g id="_O-jXmnWk3AOYR-lpisGup" transform="matrix(0.8125002384185791, 0, 0, 0.8125002384185791, 45.957027435302734, 47.99994659423828)" data-uid="o_f2561ekdf_10"><path id="_IYZZ9Y2RWyjIbyDvnKTzy" fill-rule="evenodd" clip-rule="evenodd" d="M58.034 8.249l1.431-1.981c1.271-1.395 2.689-2.397 4.256-3.008  c1.64 2.421 3.033 4.867 4.183 7.336c1.811 3.938 2.641 7.252 2.494 9.941c-0.024 0.147-0.099 0.294-0.221 0.441  c-0.146 0.171-0.27 0.282-0.367 0.33c-2.078 0.661-4.12 0.832-6.126 0.514c-3.032-0.538-5.649-2.213-7.85-5.025  C56.224 13.152 56.958 10.303 58.034 8.249z M77.403 9.459c-0.343-0.343-0.758-0.513-1.247-0.513c-0.487 0-0.904 0.17-1.246 0.513  c-0.342 0.342-0.514 0.758-0.514 1.248c0 0.489 0.172 0.905 0.514 1.247c0.342 0.343 0.759 0.514 1.246 0.514  c0.489 0 0.904-0.171 1.247-0.514c0.343-0.342 0.514-0.758 0.514-1.247C77.917 10.217 77.746 9.802 77.403 9.459z M65.721 3.48  c3.291-1.462 6.342-1.792 9.152-0.991c2.811 0.802 4.814 2.661 6.017 5.576l8.18 2.018c0.516 0.098 0.954 0.378 1.32 0.843  c0.368 0.44 0.527 0.917 0.478 1.431c-0.219 4.06-1.968 7.178-5.246 9.354c-2.151 1.443-4.731 2.373-7.741 2.789  c-0.513 0.073-0.964 0.306-1.356 0.696c-0.189 0.178-0.342 0.368-0.459 0.569c-0.132 0.235-0.211 0.486-0.238 0.752v0.073  l-1.137 7.888c0.199 1.552 0.849 3.111 1.944 4.677c1.103 1.568 2.062 3.416 2.879 5.539c-0.539-0.162-1.045-0.351-1.521-0.568  c-0.636-0.292-1.162-0.513-1.577-0.66c0.415 0.562 0.905 1.651 1.466 3.265c0.612 1.736 0.919 3.031 0.919 3.89  c0 0.317-0.063 0.806-0.184 1.465c-0.024-0.342-0.27-0.684-0.735-1.026c-0.538-0.342-0.904-0.61-1.1-0.807  c0.195 1.688 0.11 3.46-0.257 5.32c-0.391 1.955-1.039 3.729-1.944 5.318h-0.183c0-0.319-0.098-0.782-0.294-1.395  c-0.195-0.588-0.281-1.038-0.256-1.355c-0.147 0.831-1.015 2.408-2.605 4.731c-0.443 0.653-0.816 1.281-1.12 1.888  c-0.06 0.477-0.113 0.946-0.164 1.414c-0.4 3.789-0.608 7.165-0.624 10.123c-0.098 4.647 0.748 7.9 2.532 9.76  c2.348 2.397 3.399 4.377 3.154 5.942c-0.465 1.59-1.97 2.348-4.513 2.275c-3.839 0-6.726-2.263-8.657-6.785  c-0.083-0.187-0.199-0.493-0.349-0.919c2.824-11.91 0.839-18.488-5.962-19.735c-4.77-0.858-8.865 0.658-12.289 4.547  c2.886-3.008 6.372-4.108 10.456-3.3c5.445 1.103 7.316 6.439 5.612 16.013c-0.574 1.582-1.211 3.077-1.908 4.494  c3.424 0 5.368 0.818 5.835 2.455c0.243 0.834 0.157 1.652-0.259 2.46c-3.791 1.688-10.027 1.774-18.709 0.258  c-4.429-0.795-7.888-1.13-10.381-1.009v-0.021c-8.048-0.412-15.078-2.682-21.095-6.803c-6.016-4.123-8.706-10.585-8.07-19.39  l4.183 2.752c-2.959-5.015-2.959-10.444 0-16.288l2.127 3.704c-1.051-5.062 0.771-10.014 5.466-14.857v3.888  c2.446-2.224 3.327-6.664 2.642-13.315c9.146 5.087 10.003 13.781 2.568 26.083c-4.109 7.632-4.757 14.455-1.945 20.471  c1.586 3.366 3.28 5.696 5.082 6.987c0.495-11.813 3.125-21.768 7.888-29.862c1.682-2.859 4.757-7.353 9.226-13.48  c4.807-5.989 7.705-9.547 8.695-10.676c2.86-3.252 4.292-6.285 4.292-9.098c0-0.93 0.049-2.152 0.147-3.668  c2.836 2.959 6.187 4.438 10.052 4.438c1.613 0 3.179-0.256 4.694-0.771c0.489-0.146 0.905-0.453 1.247-0.917  c0.392-0.464 0.587-0.954 0.587-1.467c0.195-2.813-0.587-6.2-2.348-10.163C68.372 8.061 67.168 5.787 65.721 3.48z" fill="#3b3b3b" transform="matrix(1.4712523221969604, 0, 0, 1.4712523221969604, 147.92559814453125, 189.75318908691406)" data-uid="o_f2561ekdf_11"></path><path id="_Ih34tFPwGLatBn8QDWzla" d="M89.469 37.364c-1.561 0.99-12.547 7.712-13.797 6.874c-0.613-0.413 1.922-3.931 0.805-5.436   c-1.577-2.129-1.182-5.003-1.971-7.417c-0.706-2.162-3.421-3.74-3.832-5.753c-0.356-1.732 2.019-2.672 0.688-4.477   c-1.532 0.943-3.062 1.887-4.593 2.831c-0.817-3.66 0.973-6.967-4.151-3.27c-4.236 3.055-8.151 5.619-10.291 10.587   c-1.626 3.779-0.857 9.608-5.175 11.183c-4.54 1.657-9.241 3.377-13.545 5.583c-3.177 1.63-6.076 5.783-9.717 6.205   c-4.023 0.463-5.125-8.321-5.515-10.905c-0.659-4.379-1.249-9.041-6.21-10.537c-4.01-1.209-8.146 2.02-8.917 5.958   c0.062 0.467 0.077 1.511-0.139 1.293c1.773 1.784 5.031-5.509 6.96-1.412c2.324 4.937 1.804 11.269 2.877 16.543   c1.59 7.847 5.117 20.116 13.825 22.727c2.2 0.662 5.42-1.004 5.199 2.199c-0.164 2.369-2.008 3.978 0.108 6.162   c2.886 2.979 13.784 1.569 17.659 1.34c1.724-0.101 10.636-0.862 8.137-4.647c-1.546-2.348-6.174-1.324-8.481-1.324   c1.394-2.463 4.139-3.824 4.963-6.661c3.089 4.139 4.939 12.961 10.439 12.961c1.478 0 7.38 0.641 6.042-2.759   c-0.77-1.95-2.584-1.314-3.832-2.603c-6.628-6.837-5.35-25.245 5.022-27.781c6.201-1.518 13.175-6.102 17.204-11.026   c2.238-2.738 8.184-6.373 8.896-10.03C99.271 27.932 89.831 37.134 89.469 37.364z M72.656 35.782c-0.452 0-0.82-0.367-0.82-0.82   s0.368-0.82 0.82-0.82s0.82 0.367 0.82 0.82S73.108 35.782 72.656 35.782z" fill="#000000" transform="matrix(-1.1038572788238525, 0, 0, 1.1038572788238525, 351.80560302734375, 231.49478149414062)" data-uid="o_f2561ekdf_12"></path></g><path fill="rgba(108,183,255,1)" d="M28 15.012V4.414A2 2 0 0 0 24.586 3L5 22.586a2 2 0 0 0 0 2.828L24.586 45A2 2 0 0 0 28 43.586V33h1c14.309 0 25 14.783 25 28a1 1 0 0 0 2 0V41C56 25.993 44.538 15.422 28 15.012ZM54 50.458C50.055 39.979 40.634 31 29 31H27a1 1 0 0 0-1 1V43.586L6.414 24 26 4.414V16a1 1 0 0 0 1 1c15.9 0 27 9.869 27 24Z" transform="matrix(0.0074349127418117415, 1.7476255828755562, -1.1944838842359027, 0.005081685423820372, 402.6523911448141, 272.6024341508836)" data-uid="o_f2561ekdf_19"></path><path id="_wAw_wpKRLhF14rV1eXWLq" fill="rgba(30, 144, 255, 1)" transform="matrix(0.6285887360572815, 0, 0, 0.6285887360572815, 249.55696545541286, 369.15020402753356)" text="Pet UP" text-anchor="middle" font-size="100" letter-spacing="0" side="left" offset="0.5" dx="0" dy="0" space="preserve" href="" font-family="Lemon" font-scale="contain" x="0" y="0" data-fl-textpath="" data-uid="o_f2561ekdf_13" d="M-156.5-21.9L-156.5-21.9Q-157.1-18.3 -157.1-16.4L-157.1-16.4Q-157.1-6.7 -154.1-1.9L-154.1-1.9Q-160.1 2.6 -166.6 2.6Q-173.1 2.6 -175.89999999999998-1.15Q-178.7-4.9 -178.7-12.35Q-178.7-19.8 -172.39999999999998-54.6L-172.39999999999998-54.6L-177.7-65.3Q-166.39999999999998-72.6 -157.1-72.6L-157.1-72.6Q-154.5-72.6 -151.39999999999998-71.65Q-148.29999999999998-70.7 -147-69.5L-147-69.5Q-139.6-72.4 -133.29999999999998-72.4L-133.29999999999998-72.4Q-123.89999999999999-72.4 -118.44999999999999-65.85Q-112.99999999999999-59.3 -112.99999999999999-50L-112.99999999999999-50Q-112.99999999999999-38.8 -121.1-30L-121.1-30Q-124.99999999999999-25.7 -131.6-23.1Q-138.2-20.5 -145.04999999999998-20.5Q-151.89999999999998-20.5 -156.5-21.9ZM-154.6-33.3L-154.6-33.3Q-153.2-33 -151.7-33L-151.7-33Q-145.29999999999998-33 -140.29999999999998-37.5Q-135.29999999999998-42 -135.29999999999998-48.6L-135.29999999999998-48.6Q-135.29999999999998-53.2 -137.95-56.4Q-140.6-59.6 -145.39999999999998-59.6L-145.39999999999998-59.6Q-147.39999999999998-59.6 -150-58.8L-150-58.8Q-152-45.1 -154.6-33.3ZM-79.89999999999998 2.5L-79.89999999999998 2.5Q-93.59999999999997 2.5 -101.04999999999997-4.6Q-108.49999999999997-11.7 -108.49999999999997-23.8L-108.49999999999997-23.8Q-108.49999999999997-39.9 -97.44999999999997-49.95Q-86.39999999999998-60 -69.69999999999997-60L-69.69999999999997-60Q-60.39999999999997-60 -55.59999999999997-55.85Q-50.79999999999997-51.7 -50.79999999999997-44.9L-50.79999999999997-44.9Q-50.79999999999997-35.6 -59.84999999999997-29.45Q-68.89999999999998-23.3 -87.79999999999997-23.2L-87.79999999999997-23.2Q-87.49999999999997-16.8 -84.89999999999998-13.15Q-82.29999999999997-9.5 -78.39999999999998-9.5Q-74.49999999999997-9.5 -71.64999999999998-12.1Q-68.79999999999997-14.7 -68.79999999999997-20.6L-68.79999999999997-20.6Q-54.199999999999974-20.6 -54.199999999999974-13.7L-54.199999999999974-13.7Q-54.199999999999974-7.8 -61.39999999999997-2.65Q-68.59999999999997 2.5 -79.89999999999998 2.5ZM-71.39999999999998-48.3L-71.39999999999998-48.3Q-76.49999999999997-48.3 -80.74999999999997-43.2Q-84.99999999999997-38.1 -86.89999999999998-31.2L-86.89999999999998-31.2Q-76.89999999999998-32 -71.84999999999997-35.75Q-66.79999999999997-39.5 -66.79999999999997-43.7L-66.79999999999997-43.7Q-66.79999999999997-45.7 -68.04999999999997-47Q-69.29999999999997-48.3 -71.39999999999998-48.3ZM-40.59999999999998-36.1L-40.59999999999998-36.1Q-41.29999999999998-38.9 -41.29999999999998-41.3L-41.29999999999998-41.3Q-41.29999999999998-46.2 -38.399999999999984-48.7Q-35.499999999999986-51.2 -30.899999999999984-51.2L-30.899999999999984-51.2Q-30.899999999999984-56.4 -33.59999999999998-62.5L-33.59999999999998-62.5Q-28.69999999999998-66.1 -24.649999999999984-67.95Q-20.599999999999984-69.8 -16.099999999999984-69.8Q-11.59999999999998-69.8 -9.84999999999998-68.15Q-8.09999999999998-66.5 -8.09999999999998-63.1Q-8.09999999999998-59.7 -9.499999999999986-52.5L-9.499999999999986-52.5Q-5.499999999999986-53.1 -1.3999999999999844-54.2L-1.3999999999999844-54.2Q-0.6999999999999815-52.1 -0.6999999999999815-48.8Q-0.6999999999999815-45.5 -3.249999999999986-42.65Q-5.799999999999983-39.8 -10.699999999999982-39.8L-10.699999999999982-39.8L-12.199999999999982-39.8Q-15.799999999999983-23.5 -15.799999999999983-14.7Q-15.799999999999983-5.9 -12.699999999999982-2.4L-12.699999999999982-2.4Q-18.299999999999983 2.5 -24.599999999999984 2.5Q-30.899999999999984 2.5 -33.649999999999984-1.25Q-36.399999999999984-5 -36.399999999999984-12.9L-36.399999999999984-12.9Q-36.399999999999984-17.7 -32.899999999999984-38.1L-32.899999999999984-38.1Q-36.899999999999984-37.4 -40.59999999999998-36.1ZM 104.80000000000001-1.9L 104.80000000000001-1.9Q 98.80000000000001 2.6  93.00000000000003 2.6Q 87.20000000000002 2.6  83.80000000000001-0.4Q 80.40000000000002-3.4  80.40000000000002-9.4L 80.40000000000002-9.4Q 80.40000000000002-11.1  80.50000000000003-12L 80.50000000000003-12L 79.50000000000003-12.3Q 69.60000000000002 2.5  52.90000000000002 2.5L 52.90000000000002 2.5Q 36.80000000000002 2.5  36.80000000000002-14.5L 36.80000000000002-14.5Q 36.80000000000002-20.2  38.40000000000002-29.65Q 40.000000000000014-39.1  41.15000000000002-45.65Q 42.30000000000002-52.2  42.70000000000002-54.6L 42.70000000000002-54.6L 37.40000000000002-65.3Q 43.70000000000002-68.9  48.35000000000002-70.7Q 53.000000000000014-72.5  57.70000000000002-72.5Q 62.40000000000002-72.5  64.05000000000001-70.05Q 65.70000000000002-67.6  65.70000000000002-64.2Q 65.70000000000002-60.8  62.350000000000016-42.4Q 59.000000000000014-24  59.000000000000014-20.9L 59.000000000000014-20.9Q 59.000000000000014-13  64.40000000000002-13L 64.40000000000002-13Q 68.40000000000002-13  73.50000000000003-18.1Q 78.60000000000002-23.2  81.80000000000001-32.1L 81.80000000000001-32.1Q 79.70000000000002-38.2  79.70000000000002-44.7L 79.70000000000002-44.7Q 79.70000000000002-56.3  85.45000000000002-64.4Q 91.20000000000002-72.5  101.70000000000002-72.5L 101.70000000000002-72.5Q 107.50000000000003-72.5  111.00000000000003-70.6L 111.00000000000003-70.6Q 110.10000000000002-65.2  107.50000000000003-51L 107.50000000000003-51Q 101.80000000000001-20.9  101.80000000000001-16.4L 101.80000000000001-16.4Q 101.80000000000001-6.7  104.80000000000001-1.9ZM 141.20000000000002-21.9L 141.20000000000002-21.9Q 140.60000000000002-18.3  140.60000000000002-16.4L 140.60000000000002-16.4Q 140.60000000000002-6.7  143.60000000000002-1.9L 143.60000000000002-1.9Q 137.60000000000002 2.6  131.10000000000002 2.6Q 124.60000000000002 2.6  121.80000000000003-1.15Q 119.00000000000003-4.9  119.00000000000003-12.35Q 119.00000000000003-19.8  125.30000000000003-54.6L 125.30000000000003-54.6L 120.00000000000003-65.3Q 131.30000000000004-72.6  140.60000000000002-72.6L 140.60000000000002-72.6Q 143.20000000000002-72.6  146.3-71.65Q 149.40000000000003-70.7  150.70000000000005-69.5L 150.70000000000005-69.5Q 158.10000000000002-72.4  164.40000000000003-72.4L 164.40000000000003-72.4Q 173.8-72.4  179.25000000000003-65.85Q 184.70000000000005-59.3  184.70000000000005-50L 184.70000000000005-50Q 184.70000000000005-38.8  176.60000000000002-30L 176.60000000000002-30Q 172.70000000000005-25.7  166.10000000000002-23.1Q 159.50000000000003-20.5  152.65000000000003-20.5Q 145.8-20.5  141.20000000000002-21.9ZM 143.10000000000002-33.3L 143.10000000000002-33.3Q 144.50000000000003-33  146.00000000000003-33L 146.00000000000003-33Q 152.40000000000003-33  157.40000000000003-37.5Q 162.40000000000003-42  162.40000000000003-48.6L 162.40000000000003-48.6Q 162.40000000000003-53.2  159.75000000000003-56.4Q 157.10000000000002-59.6  152.3-59.6L 152.3-59.6Q 150.3-59.6  147.70000000000005-58.8L 147.70000000000005-58.8Q 145.70000000000005-45.1  143.10000000000002-33.3Z" font-weight="400" font-style="normal"></path></svg>